<?xml version="1.0" encoding="utf-8"?>
<!-- Generator: Adobe Illustrator 19.0.0, SVG Export Plug-In . SVG Version: 6.00 Build 0)  -->
<svg version="1.1" id="Layer_1" xmlns="http://www.w3.org/2000/svg" xmlns:xlink="http://www.w3.org/1999/xlink" x="0px" y="0px"
	 viewBox="0 0 521.4 67.1" style="enable-background:new 0 0 521.4 67.1;" xml:space="preserve">
<style type="text/css">
	.st0{clip-path:url(#SVGID_2_);}
</style>
<g>
	<defs>
		<rect id="SVGID_1_" x="-2.1" y="-20.7" width="528" height="96"/>
	</defs>
	<clipPath id="SVGID_2_">
		<use xlink:href="#SVGID_1_"  style="overflow:visible;"/>
	</clipPath>
	<polygon class="st0" points="0.6,65.7 0.6,61.8 8.6,61.8 8.6,5.8 0.6,5.8 0.6,1.8 24.6,1.8 24.6,5.8 16.6,5.8 16.6,61.8 24.6,61.8 
		24.6,65.7 	"/>
	<g class="st0">
		<path d="M33,1.8h26c12.6,0,21.1,6.8,21.1,18.2c0,9.2-4.4,14.3-11.5,16.1v0.2c14.2,2.8,9,27.9,12.4,29v0.5h-8.7
			c-2.8-2.7,3.3-25.9-12.9-25.9H41.1v25.9H33V1.8z M41.1,32.7h16c6.6,0,14.9-0.8,14.9-11.9S63.7,8.9,57.1,8.9h-16V32.7z"/>
		<path d="M97.6,1.8v64h-8.1v-64H97.6z"/>
	</g>
	<g class="st0">
		<path d="M110.5,65.7v-8h-4v-8h4v4h4v4h4v4h20v-4h4v-14h-4v-4h-8v-4h-8v-4h-8v-4h-4v-4h-4v-14h4v-4h4v-4h28v4h4v8h-4v-4h-4v-4h-20
			v4h-4v10h4v4h8v4h8v4h8v4h4v4h4v18h-4v4h-4v4H110.5z"/>
		<path d="M174.5,65.7v-4h8v-56h-8v-4h40v4h-24v56h24v4H174.5z M214.5,61.8v-4h4v-4h4v-8h4v-24h-4v-8h-4v-4h-4v-4h8v4h4v4h4v8h4v24
			h-4v8h-4v4h-4v4H214.5z"/>
	</g>
	<path class="st0" d="M272.2,0.5c-18.8,0-31.3,14-31.3,33.2c0,19.2,12.5,33.3,31.3,33.3c18.8,0,31.3-14.1,31.3-33.3
		C303.5,14.5,291,0.5,272.2,0.5z M272.2,59.8c-16.1,0-23.3-12.4-23.3-26.1c0-13.8,7.2-26,23.3-26c16.1,0,23.3,12.3,23.3,26
		C295.5,47.5,288.3,59.8,272.2,59.8z"/>
	<path class="st0" d="M312.1,1.8h26c12.6,0,21.1,6.8,21.1,18.2c0,9.2-4.4,14.3-11.5,16.1v0.2c14.2,2.8,9,27.9,12.3,29v0.5h-8.7
		c-2.8-2.7,3.3-25.9-12.9-25.9h-18.3v25.9h-8.1V1.8z M320.2,32.7h16c6.6,0,14.9-0.8,14.9-11.9s-8.3-11.9-14.9-11.9h-16V32.7z"/>
	<g class="st0">
		<path d="M365.3,65.7v-4h8v-56h-8v-4h40v4h-24v56h24v4H365.3z M405.3,61.8v-4h4v-4h4v-8h4v-24h-4v-8h-4v-4h-4v-4h8v4h4v4h4v8h4v24
			h-4v8h-4v4h-4v4H405.3z"/>
		<path d="M431.4,65.7v-4h8v-56h-8v-4h24v4h-8v56h8v4H431.4z"/>
		<path d="M473.1,61.8v-4h-4v-4h-4v-8h-4v-24h4v-8h4v-4h4v-4h8v4h-4v4h-4v8h-4v24h4v8h4v4h4v4H473.1z M481.1,5.8v-4h20v4H481.1z
			 M481.1,65.7v-4h20v4H481.1z M501.1,61.8v-4h4v-4h4v-8h4v-24h-4v-8h-4v-4h-4v-4h8v4h4v4h4v8h4v24h-4v8h-4v4h-4v4H501.1z"/>
	</g>
</g>
</svg>
